<?xml version="1.0" encoding="utf-8"?>
<!-- Generator: Adobe Illustrator 28.1.0, SVG Export Plug-In . SVG Version: 6.00 Build 0)  -->
<svg version="1.1" id="Layer_1" xmlns="http://www.w3.org/2000/svg" xmlns:xlink="http://www.w3.org/1999/xlink" x="0px" y="0px"
	 viewBox="0 0 90 75.9" style="enable-background:new 0 0 90 75.9;" xml:space="preserve">
<style type="text/css">
	.st0{fill-rule:evenodd;clip-rule:evenodd;fill:#757575;}
	.st1{fill:none;stroke:#757575;stroke-width:1.5;stroke-linecap:round;stroke-miterlimit:10;}
</style>
<path class="st0" d="M65.1,34.1c3.7-0.1,7.5,1.9,9.5,5.5c3,5.3,1.3,11.8-3.7,14.7c-5,2.9-11.5,1.1-14.5-4.1
	c-3-5.3-1.3-11.8,3.7-14.7C61.8,34.7,63.5,34.2,65.1,34.1z M65.1,32.2c-2,0-4.1,0.6-6,1.7c-6,3.5-8,11.3-4.5,17.4
	c3.3,5.7,10.3,8,16.1,5.4l4,7c0.5,0.9,1.7,1.2,2.6,0.7s1.2-1.7,0.7-2.6l-4.1-7.2c4.4-3.9,5.6-10.6,2.5-16
	C74,34.4,69.6,32.1,65.1,32.2z"/>
<path class="st0" d="M63.8,14.8c1.2,0,2.1,0.9,2.1,2.1v12c0,0.8,1.4,1.1,1.4,0V15.8c0-4.1-3.6-7.2-7.8-7.2H21.7
	c-4.2,0-7.8,3.2-7.8,7.2v34.6c0,4.1,3.6,7.2,7.8,7.2h31.6c1,0,1-1.5,0-1.5H21.7c-4.1,0-6.2-3.2-6.2-5.6V17c0-1.2,1-2.1,2.1-2.1
	L63.8,14.8z"/>
<line class="st1" x1="34.1" y1="28.2" x2="47.2" y2="41.2"/>
<line class="st1" x1="47.2" y1="28.2" x2="34.1" y2="41.2"/>
</svg>
